<?xml version="1.0" encoding="UTF-8" standalone="no"?>
<!DOCTYPE svg PUBLIC "-//W3C//DTD SVG 1.1//EN" "http://www.w3.org/Graphics/SVG/1.1/DTD/svg11.dtd">
<svg width="100%" height="100%" viewBox="0 0 642 642" version="1.1" xmlns="http://www.w3.org/2000/svg" xmlns:xlink="http://www.w3.org/1999/xlink" xml:space="preserve" xmlns:serif="http://www.serif.com/" style="fill-rule:evenodd;clip-rule:evenodd;stroke-linejoin:round;stroke-miterlimit:1.41421;">
    <g transform="matrix(1,0,0,1,0,-8)">
        <g id="Icon" transform="matrix(2.92754,0,0,4.48765,887.221,-30.145)">
            <rect x="-303.06" y="8.5" width="219.06" height="142.903" style="fill:none;"/>
            <clipPath id="_clip1">
                <rect x="-303.06" y="8.5" width="219.06" height="142.903"/>
            </clipPath>
            <g clip-path="url(#_clip1)">
                <g transform="matrix(4.02545,0,0,2.62603,-789.898,-22.0852)">
                    <path d="M162.353,56.606L128.627,56.606C128.138,56.606 127.738,56.206 127.738,55.717L127.738,52.585L121.829,52.585C121.335,52.585 120.94,52.185 120.94,51.696L120.94,26.016C120.94,25.522 121.335,25.127 121.829,25.127L127.737,25.127L127.737,21.995C127.737,21.501 128.138,21.106 128.626,21.106L162.353,21.106C162.842,21.106 163.242,21.501 163.242,21.995L163.242,25.127L169.151,25.127C169.64,25.127 170.04,25.522 170.04,26.016L170.04,29.597L174.469,29.597C174.959,29.597 175.358,29.997 175.359,30.485L175.359,47.222C175.359,47.715 174.959,48.111 174.47,48.111L170.04,48.111L170.04,51.696C170.04,52.185 169.64,52.585 169.151,52.585L163.242,52.585L163.242,55.717C163.242,56.206 162.842,56.606 162.353,56.606ZM127.738,26.905L122.717,26.905L122.717,50.808L127.738,50.808L127.738,26.905ZM168.263,26.905L163.242,26.905L163.242,50.808L168.263,50.808L168.263,26.905ZM142.042,46.353C141.906,46.353 141.769,46.322 141.642,46.259C141.342,46.108 141.153,45.8 141.153,45.465L141.153,32.247C141.153,31.911 141.342,31.604 141.642,31.453C141.943,31.302 142.302,31.334 142.572,31.534L151.458,38.143C151.683,38.31 151.816,38.574 151.816,38.855C151.816,39.137 151.683,39.401 151.458,39.568L142.572,46.177C142.415,46.294 142.229,46.353 142.042,46.353ZM173.581,31.375L170.04,31.375L170.04,46.334L173.581,46.334L173.581,31.375Z" style="fill:white;"/>
                </g>
            </g>
        </g>
    </g>
</svg>
